<?xml version="1.0" encoding="UTF-8" standalone="no"?><svg xmlns="http://www.w3.org/2000/svg" xmlns:xlink="http://www.w3.org/1999/xlink" contentStyleType="text/css" height="489px" preserveAspectRatio="none" style="width:1679px;height:489px;background:#FFFFFF;" version="1.1" viewBox="0 0 1679 489" width="1679px" zoomAndPan="magnify"><defs/><g><rect fill="#FFFFFF" height="26.2969" id="_title" style="stroke:none;stroke-width:1.0;" width="300" x="682.5" y="5"/><text fill="#000000" font-family="sans-serif" font-size="14" font-weight="bold" lengthAdjust="spacing" textLength="290" x="687.5" y="22.9951">Terraform Infrastructure Automation</text><!--MD5=[63332df4345ea2a2d7c054717c4cce28]
cluster Web Frontend--><g id="cluster_Web Frontend"><path d="M828.5,143.7969 L941.5,143.7969 A3.75,3.75 0 0 1 944,146.2969 L951,166.0938 L951.5,166.0938 A2.5,2.5 0 0 1 954,168.5938 L954,238.2969 A2.5,2.5 0 0 1 951.5,240.7969 L828.5,240.7969 A2.5,2.5 0 0 1 826,238.2969 L826,146.2969 A2.5,2.5 0 0 1 828.5,143.7969 " fill="none" style="stroke:#000000;stroke-width:1.5;"/><line style="stroke:#000000;stroke-width:1.5;" x1="826" x2="951" y1="166.0938" y2="166.0938"/><text fill="#000000" font-family="sans-serif" font-size="14" font-weight="bold" lengthAdjust="spacing" textLength="112" x="830" y="158.792">Web Frontend</text></g><!--MD5=[047f8845f51798c705b75fda60275b1e]
cluster Terraform Modules--><g id="cluster_Terraform Modules"><path d="M599.5,264.7969 L751.5,264.7969 A3.75,3.75 0 0 1 754,267.2969 L761,287.0938 L1177.5,287.0938 A2.5,2.5 0 0 1 1180,289.5938 L1180,359.2969 A2.5,2.5 0 0 1 1177.5,361.7969 L599.5,361.7969 A2.5,2.5 0 0 1 597,359.2969 L597,267.2969 A2.5,2.5 0 0 1 599.5,264.7969 " fill="none" style="stroke:#000000;stroke-width:1.5;"/><line style="stroke:#000000;stroke-width:1.5;" x1="597" x2="761" y1="287.0938" y2="287.0938"/><text fill="#000000" font-family="sans-serif" font-size="14" font-weight="bold" lengthAdjust="spacing" textLength="151" x="601" y="279.792">Terraform Modules</text></g><!--MD5=[f456b4be1fa89466e9c786c59510d343]
cluster AWS Environment - dev--><g id="cluster_AWS Environment - dev"><path d="M8.5,385.7969 L194.5,385.7969 A3.75,3.75 0 0 1 197,388.2969 L204,408.0938 L446.5,408.0938 A2.5,2.5 0 0 1 449,410.5938 L449,480.2969 A2.5,2.5 0 0 1 446.5,482.7969 L8.5,482.7969 A2.5,2.5 0 0 1 6,480.2969 L6,388.2969 A2.5,2.5 0 0 1 8.5,385.7969 " fill="none" style="stroke:#000000;stroke-width:1.5;"/><line style="stroke:#000000;stroke-width:1.5;" x1="6" x2="204" y1="408.0938" y2="408.0938"/><text fill="#000000" font-family="sans-serif" font-size="14" font-weight="bold" lengthAdjust="spacing" textLength="185" x="10" y="400.792">AWS Environment - dev</text></g><!--MD5=[631d9c6c58c848b2afef867b6706c3d7]
cluster AWS Environment - prd--><g id="cluster_AWS Environment - prd"><path d="M475.5,385.7969 L659.5,385.7969 A3.75,3.75 0 0 1 662,388.2969 L669,408.0938 L1208.5,408.0938 A2.5,2.5 0 0 1 1211,410.5938 L1211,480.2969 A2.5,2.5 0 0 1 1208.5,482.7969 L475.5,482.7969 A2.5,2.5 0 0 1 473,480.2969 L473,388.2969 A2.5,2.5 0 0 1 475.5,385.7969 " fill="none" style="stroke:#000000;stroke-width:1.5;"/><line style="stroke:#000000;stroke-width:1.5;" x1="473" x2="669" y1="408.0938" y2="408.0938"/><text fill="#000000" font-family="sans-serif" font-size="14" font-weight="bold" lengthAdjust="spacing" textLength="183" x="477" y="400.792">AWS Environment - prd</text></g><!--MD5=[ef04ef64eeef7b175bd552d7cc1dae30]
cluster AWS Environment - stg--><g id="cluster_AWS Environment - stg"><path d="M1237.5,385.7969 L1419.5,385.7969 A3.75,3.75 0 0 1 1422,388.2969 L1429,408.0938 L1669.5,408.0938 A2.5,2.5 0 0 1 1672,410.5938 L1672,480.2969 A2.5,2.5 0 0 1 1669.5,482.7969 L1237.5,482.7969 A2.5,2.5 0 0 1 1235,480.2969 L1235,388.2969 A2.5,2.5 0 0 1 1237.5,385.7969 " fill="none" style="stroke:#000000;stroke-width:1.5;"/><line style="stroke:#000000;stroke-width:1.5;" x1="1235" x2="1429" y1="408.0938" y2="408.0938"/><text fill="#000000" font-family="sans-serif" font-size="14" font-weight="bold" lengthAdjust="spacing" textLength="181" x="1239" y="400.792">AWS Environment - stg</text></g><!--MD5=[d7ff9f35f8eb62fca809ec50c619163d]
entity Web UI--><g id="elem_Web UI"><rect fill="#F1F1F1" height="46.2969" rx="2.5" ry="2.5" style="stroke:#181818;stroke-width:0.5;" width="88" x="846" y="178.7969"/><rect fill="#F1F1F1" height="10" style="stroke:#181818;stroke-width:0.5;" width="15" x="914" y="183.7969"/><rect fill="#F1F1F1" height="2" style="stroke:#181818;stroke-width:0.5;" width="4" x="912" y="185.7969"/><rect fill="#F1F1F1" height="2" style="stroke:#181818;stroke-width:0.5;" width="4" x="912" y="189.7969"/><text fill="#000000" font-family="sans-serif" font-size="14" lengthAdjust="spacing" textLength="48" x="861" y="211.792">Web UI</text></g><!--MD5=[70e53431e6c5cbcae86bd88fbda7b4e7]
entity dev-infrastructure--><g id="elem_dev-infrastructure"><rect fill="#F1F1F1" height="46.2969" rx="2.5" ry="2.5" style="stroke:#181818;stroke-width:0.5;" width="162" x="613" y="299.7969"/><rect fill="#F1F1F1" height="10" style="stroke:#181818;stroke-width:0.5;" width="15" x="755" y="304.7969"/><rect fill="#F1F1F1" height="2" style="stroke:#181818;stroke-width:0.5;" width="4" x="753" y="306.7969"/><rect fill="#F1F1F1" height="2" style="stroke:#181818;stroke-width:0.5;" width="4" x="753" y="310.7969"/><text fill="#000000" font-family="sans-serif" font-size="14" lengthAdjust="spacing" textLength="122" x="628" y="332.792">dev-infrastructure</text></g><!--MD5=[f21238dc258e5ddcfe746085f5520f9d]
entity prd-infrastructure--><g id="elem_prd-infrastructure"><rect fill="#F1F1F1" height="46.2969" rx="2.5" ry="2.5" style="stroke:#181818;stroke-width:0.5;" width="160" x="810" y="299.7969"/><rect fill="#F1F1F1" height="10" style="stroke:#181818;stroke-width:0.5;" width="15" x="950" y="304.7969"/><rect fill="#F1F1F1" height="2" style="stroke:#181818;stroke-width:0.5;" width="4" x="948" y="306.7969"/><rect fill="#F1F1F1" height="2" style="stroke:#181818;stroke-width:0.5;" width="4" x="948" y="310.7969"/><text fill="#000000" font-family="sans-serif" font-size="14" lengthAdjust="spacing" textLength="120" x="825" y="332.792">prd-infrastructure</text></g><!--MD5=[9286b1ae711fa3cd88eb0bcc42a8d66d]
entity stg-infrastructure--><g id="elem_stg-infrastructure"><rect fill="#F1F1F1" height="46.2969" rx="2.5" ry="2.5" style="stroke:#181818;stroke-width:0.5;" width="159" x="1005.5" y="299.7969"/><rect fill="#F1F1F1" height="10" style="stroke:#181818;stroke-width:0.5;" width="15" x="1144.5" y="304.7969"/><rect fill="#F1F1F1" height="2" style="stroke:#181818;stroke-width:0.5;" width="4" x="1142.5" y="306.7969"/><rect fill="#F1F1F1" height="2" style="stroke:#181818;stroke-width:0.5;" width="4" x="1142.5" y="310.7969"/><text fill="#000000" font-family="sans-serif" font-size="14" lengthAdjust="spacing" textLength="119" x="1020.5" y="332.792">stg-infrastructure</text></g><!--MD5=[ed8891ccb013fe1c75e9b38b92b422e3]
entity S3 Bucket (dev)--><g id="elem_S3 Bucket (dev)"><rect fill="#F1F1F1" height="46.2969" rx="2.5" ry="2.5" style="stroke:#181818;stroke-width:0.5;" width="150" x="283" y="420.7969"/><rect fill="#F1F1F1" height="10" style="stroke:#181818;stroke-width:0.5;" width="15" x="413" y="425.7969"/><rect fill="#F1F1F1" height="2" style="stroke:#181818;stroke-width:0.5;" width="4" x="411" y="427.7969"/><rect fill="#F1F1F1" height="2" style="stroke:#181818;stroke-width:0.5;" width="4" x="411" y="431.7969"/><text fill="#000000" font-family="sans-serif" font-size="14" lengthAdjust="spacing" textLength="110" x="298" y="453.792">S3 Bucket (dev)</text></g><!--MD5=[50ea8a981c12273960a034d1dce9550a]
entity EC2 Instance (1 x t2.micro)--><g id="elem_EC2 Instance (1 x t2.micro)"><rect fill="#F1F1F1" height="46.2969" rx="2.5" ry="2.5" style="stroke:#181818;stroke-width:0.5;" width="225" x="22.5" y="420.7969"/><rect fill="#F1F1F1" height="10" style="stroke:#181818;stroke-width:0.5;" width="15" x="227.5" y="425.7969"/><rect fill="#F1F1F1" height="2" style="stroke:#181818;stroke-width:0.5;" width="4" x="225.5" y="427.7969"/><rect fill="#F1F1F1" height="2" style="stroke:#181818;stroke-width:0.5;" width="4" x="225.5" y="431.7969"/><text fill="#000000" font-family="sans-serif" font-size="14" lengthAdjust="spacing" textLength="185" x="37.5" y="453.792">EC2 Instance (1 x t2.micro)</text></g><!--MD5=[03ee1f469386a84f70f57d08698394c9]
entity S3 Bucket (prd)--><g id="elem_S3 Bucket (prd)"><rect fill="#F1F1F1" height="46.2969" rx="2.5" ry="2.5" style="stroke:#181818;stroke-width:0.5;" width="148" x="1047" y="420.7969"/><rect fill="#F1F1F1" height="10" style="stroke:#181818;stroke-width:0.5;" width="15" x="1175" y="425.7969"/><rect fill="#F1F1F1" height="2" style="stroke:#181818;stroke-width:0.5;" width="4" x="1173" y="427.7969"/><rect fill="#F1F1F1" height="2" style="stroke:#181818;stroke-width:0.5;" width="4" x="1173" y="431.7969"/><text fill="#000000" font-family="sans-serif" font-size="14" lengthAdjust="spacing" textLength="108" x="1062" y="453.792">S3 Bucket (prd)</text></g><!--MD5=[2ba578d322d62559b1a149ebe55c2d5a]
entity EC2 Instance (t2.medium #1)--><g id="elem_EC2 Instance (t2.medium #1)"><rect fill="#F1F1F1" height="46.2969" rx="2.5" ry="2.5" style="stroke:#181818;stroke-width:0.5;" width="244" x="768" y="420.7969"/><rect fill="#F1F1F1" height="10" style="stroke:#181818;stroke-width:0.5;" width="15" x="992" y="425.7969"/><rect fill="#F1F1F1" height="2" style="stroke:#181818;stroke-width:0.5;" width="4" x="990" y="427.7969"/><rect fill="#F1F1F1" height="2" style="stroke:#181818;stroke-width:0.5;" width="4" x="990" y="431.7969"/><text fill="#000000" font-family="sans-serif" font-size="14" lengthAdjust="spacing" textLength="204" x="783" y="453.792">EC2 Instance (t2.medium #1)</text></g><!--MD5=[39ec78470bd4a20d97fabbda534eba77]
entity EC2 Instance (t2.medium #2)--><g id="elem_EC2 Instance (t2.medium #2)"><rect fill="#F1F1F1" height="46.2969" rx="2.5" ry="2.5" style="stroke:#181818;stroke-width:0.5;" width="244" x="489" y="420.7969"/><rect fill="#F1F1F1" height="10" style="stroke:#181818;stroke-width:0.5;" width="15" x="713" y="425.7969"/><rect fill="#F1F1F1" height="2" style="stroke:#181818;stroke-width:0.5;" width="4" x="711" y="427.7969"/><rect fill="#F1F1F1" height="2" style="stroke:#181818;stroke-width:0.5;" width="4" x="711" y="431.7969"/><text fill="#000000" font-family="sans-serif" font-size="14" lengthAdjust="spacing" textLength="204" x="504" y="453.792">EC2 Instance (t2.medium #2)</text></g><!--MD5=[bad525a83526ca4e39bc8b91bcb1a880]
entity S3 Bucket (stg)--><g id="elem_S3 Bucket (stg)"><rect fill="#F1F1F1" height="46.2969" rx="2.5" ry="2.5" style="stroke:#181818;stroke-width:0.5;" width="147" x="1508.5" y="420.7969"/><rect fill="#F1F1F1" height="10" style="stroke:#181818;stroke-width:0.5;" width="15" x="1635.5" y="425.7969"/><rect fill="#F1F1F1" height="2" style="stroke:#181818;stroke-width:0.5;" width="4" x="1633.5" y="427.7969"/><rect fill="#F1F1F1" height="2" style="stroke:#181818;stroke-width:0.5;" width="4" x="1633.5" y="431.7969"/><text fill="#000000" font-family="sans-serif" font-size="14" lengthAdjust="spacing" textLength="107" x="1523.5" y="453.792">S3 Bucket (stg)</text></g><!--MD5=[3a838911f0d20244fd39c386950d92e9]
entity EC2 Instance (1 x t2.small)--><g id="elem_EC2 Instance (1 x t2.small)"><rect fill="#F1F1F1" height="46.2969" rx="2.5" ry="2.5" style="stroke:#181818;stroke-width:0.5;" width="222" x="1251" y="420.7969"/><rect fill="#F1F1F1" height="10" style="stroke:#181818;stroke-width:0.5;" width="15" x="1453" y="425.7969"/><rect fill="#F1F1F1" height="2" style="stroke:#181818;stroke-width:0.5;" width="4" x="1451" y="427.7969"/><rect fill="#F1F1F1" height="2" style="stroke:#181818;stroke-width:0.5;" width="4" x="1451" y="431.7969"/><text fill="#000000" font-family="sans-serif" font-size="14" lengthAdjust="spacing" textLength="182" x="1266" y="453.792">EC2 Instance (1 x t2.small)</text></g><!--MD5=[fee662a292a0353a69bd162820bae93b]
entity User--><g id="elem_User"><ellipse cx="890" cy="51.2969" fill="#F1F1F1" rx="8" ry="8" style="stroke:#181818;stroke-width:0.5;"/><path d="M890,59.2969 L890,86.2969 M877,67.2969 L903,67.2969 M890,86.2969 L877,101.2969 M890,86.2969 L903,101.2969 " fill="none" style="stroke:#181818;stroke-width:0.5;"/><text fill="#000000" font-family="sans-serif" font-size="14" lengthAdjust="spacing" textLength="32" x="874" y="115.792">User</text></g><!--MD5=[c6354094fd57c28455608962856ec63d]
link User to Web UI--><g id="link_User_Web UI"><path d="M890,119.0869 C890,119.0869 890,173.5369 890,173.5369 " fill="none" id="User-to-Web UI" style="stroke:#181818;stroke-width:1.0;"/><polygon fill="#181818" points="890,178.5369,894,169.5369,890,173.5369,886,169.5369,890,178.5369" style="stroke:#181818;stroke-width:1.0;"/></g><!--MD5=[df3303227b631422d4e604a159db813a]
link Web UI to dev-infrastructure--><g id="link_Web UI_dev-infrastructure"><path d="M845.52,201.7969 C787.7,201.7969 694,201.7969 694,201.7969 C694,201.7969 694,294.7569 694,294.7569 " fill="none" id="Web UI-to-dev-infrastructure" style="stroke:#181818;stroke-width:1.0;"/><polygon fill="#181818" points="694,299.7569,698,290.7569,694,294.7569,690,290.7569,694,299.7569" style="stroke:#181818;stroke-width:1.0;"/></g><!--MD5=[1f36b2d484703ea7fb73b6e8072a62e7]
link Web UI to prd-infrastructure--><g id="link_Web UI_prd-infrastructure"><path d="M890,224.8369 C890,224.8369 890,294.4269 890,294.4269 " fill="none" id="Web UI-to-prd-infrastructure" style="stroke:#181818;stroke-width:1.0;"/><polygon fill="#181818" points="890,299.4269,894,290.4269,890,294.4269,886,290.4269,890,299.4269" style="stroke:#181818;stroke-width:1.0;"/></g><!--MD5=[6eb2bd396327a9d3f574eaef4e23b5f9]
link Web UI to stg-infrastructure--><g id="link_Web UI_stg-infrastructure"><path d="M934.25,201.7969 C991.78,201.7969 1085,201.7969 1085,201.7969 C1085,201.7969 1085,294.7569 1085,294.7569 " fill="none" id="Web UI-to-stg-infrastructure" style="stroke:#181818;stroke-width:1.0;"/><polygon fill="#181818" points="1085,299.7569,1089,290.7569,1085,294.7569,1081,290.7569,1085,299.7569" style="stroke:#181818;stroke-width:1.0;"/></g><!--MD5=[4551085c460a913b22dbbbd3d6e70a20]
link dev-infrastructure to S3 Bucket (dev)--><g id="link_dev-infrastructure_S3 Bucket (dev)"><path d="M612.66,330.7969 C513.22,330.7969 358,330.7969 358,330.7969 C358,330.7969 358,415.6569 358,415.6569 " fill="none" id="dev-infrastructure-to-S3 Bucket (dev)" style="stroke:#181818;stroke-width:1.0;"/><polygon fill="#181818" points="358,420.6569,362,411.6569,358,415.6569,354,411.6569,358,420.6569" style="stroke:#181818;stroke-width:1.0;"/></g><!--MD5=[787a3d8082bb35445706f866d19b58cb]
link dev-infrastructure to EC2 Instance (1 x t2.micro)--><g id="link_dev-infrastructure_EC2 Instance (1 x t2.micro)"><path d="M612.72,315.7969 C457.68,315.7969 135,315.7969 135,315.7969 C135,315.7969 135,415.6169 135,415.6169 " fill="none" id="dev-infrastructure-to-EC2 Instance (1 x t2.micro)" style="stroke:#181818;stroke-width:1.0;"/><polygon fill="#181818" points="135,420.6169,139,411.6169,135,415.6169,131,411.6169,135,420.6169" style="stroke:#181818;stroke-width:1.0;"/></g><!--MD5=[4f87e74449c3e46de27bcae20fbe0351]
link prd-infrastructure to S3 Bucket (prd)--><g id="link_prd-infrastructure_S3 Bucket (prd)"><path d="M930,345.8969 C930,367.2769 930,395.7969 930,395.7969 C930,395.7969 1105.75,395.7969 1105.75,395.7969 C1105.75,395.7969 1105.75,415.6369 1105.75,415.6369 " fill="none" id="prd-infrastructure-to-S3 Bucket (prd)" style="stroke:#181818;stroke-width:1.0;"/><polygon fill="#181818" points="1105.75,420.6369,1109.75,411.6369,1105.75,415.6369,1101.75,411.6369,1105.75,420.6369" style="stroke:#181818;stroke-width:1.0;"/></g><!--MD5=[3e90c222456c9e0879390c1214b200a0]
link prd-infrastructure to EC2 Instance (t2.medium #1)--><g id="link_prd-infrastructure_EC2 Instance (t2.medium #1)"><path d="M890,345.8369 C890,345.8369 890,415.4269 890,415.4269 " fill="none" id="prd-infrastructure-to-EC2 Instance (t2.medium #1)" style="stroke:#181818;stroke-width:1.0;"/><polygon fill="#181818" points="890,420.4269,894,411.4269,890,415.4269,886,411.4269,890,420.4269" style="stroke:#181818;stroke-width:1.0;"/></g><!--MD5=[8b3f90e88801425ea9c621457d6fd152]
link prd-infrastructure to EC2 Instance (t2.medium #2)--><g id="link_prd-infrastructure_EC2 Instance (t2.medium #2)"><path d="M850,345.9569 C850,358.2269 850,370.7969 850,370.7969 C850,370.7969 673,370.7969 673,370.7969 C673,370.7969 673,415.6969 673,415.6969 " fill="none" id="prd-infrastructure-to-EC2 Instance (t2.medium #2)" style="stroke:#181818;stroke-width:1.0;"/><polygon fill="#181818" points="673,420.6969,677,411.6969,673,415.6969,669,411.6969,673,420.6969" style="stroke:#181818;stroke-width:1.0;"/></g><!--MD5=[c582caf7a0928473a29e2fade19f415b]
link stg-infrastructure to S3 Bucket (stg)--><g id="link_stg-infrastructure_S3 Bucket (stg)"><path d="M1164.58,315.7969 C1304.98,315.7969 1582,315.7969 1582,315.7969 C1582,315.7969 1582,415.6169 1582,415.6169 " fill="none" id="stg-infrastructure-to-S3 Bucket (stg)" style="stroke:#181818;stroke-width:1.0;"/><polygon fill="#181818" points="1582,420.6169,1586,411.6169,1582,415.6169,1578,411.6169,1582,420.6169" style="stroke:#181818;stroke-width:1.0;"/></g><!--MD5=[fc7deed4eac19153e9aedffd447c1fb5]
link stg-infrastructure to EC2 Instance (1 x t2.small)--><g id="link_stg-infrastructure_EC2 Instance (1 x t2.small)"><path d="M1164.75,330.7969 C1246.58,330.7969 1362,330.7969 1362,330.7969 C1362,330.7969 1362,415.6569 1362,415.6569 " fill="none" id="stg-infrastructure-to-EC2 Instance (1 x t2.small)" style="stroke:#181818;stroke-width:1.0;"/><polygon fill="#181818" points="1362,420.6569,1366,411.6569,1362,415.6569,1358,411.6569,1362,420.6569" style="stroke:#181818;stroke-width:1.0;"/></g><!--MD5=[1b416c0497cfa6368346fb0bbf9b9224]
@startuml
title Terraform Infrastructure Automation
skinparam linetype ortho
skinparam shadowing false
skinparam backgroundColor #FFFFFF

actor User

package "Web Frontend" {
  [Web UI]
}

package "Terraform Modules" {
  [dev-infrastructure]
  [prd-infrastructure]
  [stg-infrastructure]
}

package "AWS Environment - dev" {
  [S3 Bucket (dev)]
  [EC2 Instance (1 x t2.micro)]
}

package "AWS Environment - prd" {
  [S3 Bucket (prd)]
  [EC2 Instance (t2.medium #1)]
  [EC2 Instance (t2.medium #2)]
}

package "AWS Environment - stg" {
  [S3 Bucket (stg)]
  [EC2 Instance (1 x t2.small)]
}

User - -> [Web UI]
[Web UI] - -> [dev-infrastructure]
[Web UI] - -> [prd-infrastructure]
[Web UI] - -> [stg-infrastructure]

[dev-infrastructure] - -> [S3 Bucket (dev)]
[dev-infrastructure] - -> [EC2 Instance (1 x t2.micro)]

[prd-infrastructure] - -> [S3 Bucket (prd)]
[prd-infrastructure] - -> [EC2 Instance (t2.medium #1)]
[prd-infrastructure] - -> [EC2 Instance (t2.medium #2)]

[stg-infrastructure] - -> [S3 Bucket (stg)]
[stg-infrastructure] - -> [EC2 Instance (1 x t2.small)]
@enduml

PlantUML version 1.2022.7(Mon Aug 22 17:01:30 UTC 2022)
(GPL source distribution)
Java Runtime: OpenJDK Runtime Environment
JVM: OpenJDK 64-Bit Server VM
Default Encoding: UTF-8
Language: en
Country: null
--></g></svg>