<?xml version="1.0" encoding="UTF-8" standalone="no"?>
<!DOCTYPE svg PUBLIC "-//W3C//DTD SVG 1.1//EN"
 "http://www.w3.org/Graphics/SVG/1.1/DTD/svg11.dtd">
<!-- Generated by graphviz version 14.1.3 (20260303.0454)
 -->
<!-- Title: G Pages: 1 -->
<svg width="606pt" height="584pt"
 viewBox="0.00 0.00 606.00 584.00" xmlns="http://www.w3.org/2000/svg" xmlns:xlink="http://www.w3.org/1999/xlink">
<g id="graph0" class="graph" transform="scale(1 1) rotate(0) translate(4 580)">
<title>G</title>
<polygon fill="white" stroke="none" points="-4,4 -4,-580 602.25,-580 602.25,4 -4,4"/>
<!-- data.aws_ami.ami_image -->
<g id="node1" class="node">
<title>data.aws_ami.ami_image</title>
<polygon fill="none" stroke="black" points="498.5,-36 327.25,-36 327.25,0 498.5,0 498.5,-36"/>
<text xml:space="preserve" text-anchor="middle" x="412.88" y="-12.2" font-family="sans-serif" font-size="14.00">data.aws_ami.ami_image</text>
</g>
<!-- data.local_file.user_data -->
<g id="node2" class="node">
<title>data.local_file.user_data</title>
<polygon fill="none" stroke="black" points="494,-90 331.75,-90 331.75,-54 494,-54 494,-90"/>
<text xml:space="preserve" text-anchor="middle" x="412.88" y="-66.2" font-family="sans-serif" font-size="14.00">data.local_file.user_data</text>
</g>
<!-- aws_eip.lb&#45;eip -->
<g id="node3" class="node">
<title>aws_eip.lb&#45;eip</title>
<polygon fill="none" stroke="black" points="146.88,-360 44.62,-360 44.62,-324 146.88,-324 146.88,-360"/>
<text xml:space="preserve" text-anchor="middle" x="95.75" y="-336.2" font-family="sans-serif" font-size="14.00">aws_eip.lb&#45;eip</text>
</g>
<!-- aws_iam_user.user -->
<g id="node4" class="node">
<title>aws_iam_user.user</title>
<polygon fill="none" stroke="black" points="479.75,-414 346,-414 346,-378 479.75,-378 479.75,-414"/>
<text xml:space="preserve" text-anchor="middle" x="412.88" y="-390.2" font-family="sans-serif" font-size="14.00">aws_iam_user.user</text>
</g>
<!-- aws_instance.app_server -->
<g id="node5" class="node">
<title>aws_instance.app_server</title>
<polygon fill="none" stroke="black" points="497.38,-468 328.38,-468 328.38,-432 497.38,-432 497.38,-468"/>
<text xml:space="preserve" text-anchor="middle" x="412.88" y="-444.2" font-family="sans-serif" font-size="14.00">aws_instance.app_server</text>
</g>
<!-- aws_instance.ec2 -->
<g id="node6" class="node">
<title>aws_instance.ec2</title>
<polygon fill="none" stroke="black" points="474.5,-522 351.25,-522 351.25,-486 474.5,-486 474.5,-522"/>
<text xml:space="preserve" text-anchor="middle" x="412.88" y="-498.2" font-family="sans-serif" font-size="14.00">aws_instance.ec2</text>
</g>
<!-- aws_security_group.allow_tls -->
<g id="node7" class="node">
<title>aws_security_group.allow_tls</title>
<polygon fill="none" stroke="black" points="191.5,-252 0,-252 0,-216 191.5,-216 191.5,-252"/>
<text xml:space="preserve" text-anchor="middle" x="95.75" y="-228.2" font-family="sans-serif" font-size="14.00">aws_security_group.allow_tls</text>
</g>
<!-- aws_security_group.allow_tls_dynamic -->
<g id="node8" class="node">
<title>aws_security_group.allow_tls_dynamic</title>
<polygon fill="none" stroke="black" points="537.88,-576 287.88,-576 287.88,-540 537.88,-540 537.88,-576"/>
<text xml:space="preserve" text-anchor="middle" x="412.88" y="-552.2" font-family="sans-serif" font-size="14.00">aws_security_group.allow_tls_dynamic</text>
</g>
<!-- aws_vpc_security_group_egress_rule.allow_all_traffic_ipv4 -->
<g id="node9" class="node">
<title>aws_vpc_security_group_egress_rule.allow_all_traffic_ipv4</title>
<polygon fill="none" stroke="black" points="598.25,-306 227.5,-306 227.5,-270 598.25,-270 598.25,-306"/>
<text xml:space="preserve" text-anchor="middle" x="412.88" y="-282.2" font-family="sans-serif" font-size="14.00">aws_vpc_security_group_egress_rule.allow_all_traffic_ipv4</text>
</g>
<!-- aws_vpc_security_group_egress_rule.allow_all_traffic_ipv4&#45;&gt;aws_security_group.allow_tls -->
<g id="edge1" class="edge">
<title>aws_vpc_security_group_egress_rule.allow_all_traffic_ipv4&#45;&gt;aws_security_group.allow_tls</title>
<path fill="none" stroke="black" d="M279.29,-269.53C261.85,-266.82 244.23,-263.95 227.5,-261 216.43,-259.05 204.86,-256.87 193.38,-254.61"/>
<polygon fill="black" stroke="black" points="194.39,-251.25 183.9,-252.73 193.03,-258.11 194.39,-251.25"/>
</g>
<!-- aws_vpc_security_group_ingress_rule.allow_ftp_ipv4 -->
<g id="node10" class="node">
<title>aws_vpc_security_group_ingress_rule.allow_ftp_ipv4</title>
<polygon fill="none" stroke="black" points="580.25,-252 245.5,-252 245.5,-216 580.25,-216 580.25,-252"/>
<text xml:space="preserve" text-anchor="middle" x="412.88" y="-228.2" font-family="sans-serif" font-size="14.00">aws_vpc_security_group_ingress_rule.allow_ftp_ipv4</text>
</g>
<!-- aws_vpc_security_group_ingress_rule.allow_ftp_ipv4&#45;&gt;aws_security_group.allow_tls -->
<g id="edge2" class="edge">
<title>aws_vpc_security_group_ingress_rule.allow_ftp_ipv4&#45;&gt;aws_security_group.allow_tls</title>
<path fill="none" stroke="black" d="M245.09,-234C230.78,-234 216.58,-234 202.96,-234"/>
<polygon fill="black" stroke="black" points="203.17,-230.5 193.17,-234 203.17,-237.5 203.17,-230.5"/>
</g>
<!-- aws_vpc_security_group_ingress_rule.allow_ssh_ipv4 -->
<g id="node11" class="node">
<title>aws_vpc_security_group_ingress_rule.allow_ssh_ipv4</title>
<polygon fill="none" stroke="black" points="583.25,-198 242.5,-198 242.5,-162 583.25,-162 583.25,-198"/>
<text xml:space="preserve" text-anchor="middle" x="412.88" y="-174.2" font-family="sans-serif" font-size="14.00">aws_vpc_security_group_ingress_rule.allow_ssh_ipv4</text>
</g>
<!-- aws_vpc_security_group_ingress_rule.allow_ssh_ipv4&#45;&gt;aws_security_group.allow_tls -->
<g id="edge3" class="edge">
<title>aws_vpc_security_group_ingress_rule.allow_ssh_ipv4&#45;&gt;aws_security_group.allow_tls</title>
<path fill="none" stroke="black" d="M279.29,-198.47C261.85,-201.18 244.23,-204.05 227.5,-207 216.43,-208.95 204.86,-211.13 193.38,-213.39"/>
<polygon fill="black" stroke="black" points="193.03,-209.89 183.9,-215.27 194.39,-216.75 193.03,-209.89"/>
</g>
<!-- aws_vpc_security_group_ingress_rule.allow_tls_ipv4 -->
<g id="node12" class="node">
<title>aws_vpc_security_group_ingress_rule.allow_tls_ipv4</title>
<polygon fill="none" stroke="black" points="579.5,-144 246.25,-144 246.25,-108 579.5,-108 579.5,-144"/>
<text xml:space="preserve" text-anchor="middle" x="412.88" y="-120.2" font-family="sans-serif" font-size="14.00">aws_vpc_security_group_ingress_rule.allow_tls_ipv4</text>
</g>
<!-- aws_vpc_security_group_ingress_rule.allow_tls_ipv4&#45;&gt;aws_security_group.allow_tls -->
<g id="edge4" class="edge">
<title>aws_vpc_security_group_ingress_rule.allow_tls_ipv4&#45;&gt;aws_security_group.allow_tls</title>
<path fill="none" stroke="black" d="M254.85,-144.45C245.5,-146.95 236.31,-149.78 227.5,-153 191.25,-166.23 154.25,-190.34 128.91,-208.83"/>
<polygon fill="black" stroke="black" points="126.94,-205.93 121.01,-214.7 131.12,-211.55 126.94,-205.93"/>
</g>
<!-- aws_vpc_security_group_ingress_rule.ing&#45;rule -->
<g id="node13" class="node">
<title>aws_vpc_security_group_ingress_rule.ing&#45;rule</title>
<polygon fill="none" stroke="black" points="560,-360 265.75,-360 265.75,-324 560,-324 560,-360"/>
<text xml:space="preserve" text-anchor="middle" x="412.88" y="-336.2" font-family="sans-serif" font-size="14.00">aws_vpc_security_group_ingress_rule.ing&#45;rule</text>
</g>
<!-- aws_vpc_security_group_ingress_rule.ing&#45;rule&#45;&gt;aws_eip.lb&#45;eip -->
<g id="edge5" class="edge">
<title>aws_vpc_security_group_ingress_rule.ing&#45;rule&#45;&gt;aws_eip.lb&#45;eip</title>
<path fill="none" stroke="black" d="M265.38,-342C227.76,-342 189.29,-342 158.61,-342"/>
<polygon fill="black" stroke="black" points="158.76,-338.5 148.76,-342 158.76,-345.5 158.76,-338.5"/>
</g>
<!-- aws_vpc_security_group_ingress_rule.ing&#45;rule&#45;&gt;aws_security_group.allow_tls -->
<g id="edge6" class="edge">
<title>aws_vpc_security_group_ingress_rule.ing&#45;rule&#45;&gt;aws_security_group.allow_tls</title>
<path fill="none" stroke="black" d="M265.56,-326.25C252.51,-323.15 239.66,-319.44 227.5,-315 191.25,-301.77 154.25,-277.66 128.91,-259.17"/>
<polygon fill="black" stroke="black" points="131.12,-256.45 121.01,-253.3 126.94,-262.07 131.12,-256.45"/>
</g>
</g>
</svg>
